<?xml version="1.0" encoding="UTF-8"?>
<svg width="600px" height="600px" viewBox="0 0 600 600" version="1.1" xmlns="http://www.w3.org/2000/svg" xmlns:xlink="http://www.w3.org/1999/xlink">
    <!-- Generator: Sketch 42 (36781) - http://www.bohemiancoding.com/sketch -->
    <title>mamboitalianologo-black</title>
    <desc>Created with Sketch.</desc>
    <defs></defs>
    <g id="Page-1" stroke="none" stroke-width="1" fill="none" fill-rule="evenodd">
        <g id="Artboard" transform="translate(-23.000000, -24.000000)" fill="#000000">
            <g id="Group" transform="translate(23.000000, 24.000000)">
                <path d="M515.108665,161.967988 C518.984189,153.994437 520.697722,145.595392 520.249303,136.770731 C519.565653,124.326239 514.7738,114.672652 505.873602,107.809678 C496.973404,100.946705 486.541157,98.8963723 474.576547,101.65862 C471.089718,102.463618 467.770206,103.611907 464.618005,105.103491 C420.325906,68.0969469 363.29665,45.8259325 301.065719,45.8259325 C206.273975,45.8259325 123.551239,97.4994995 79.5295412,174.214604 L67.5301938,158.365527 L49.3507967,162.562572 L52.076484,244.673725 C47.9852839,262.815044 45.8259325,281.68821 45.8259325,301.065719 C45.8259325,442.030761 160.100678,556.305506 301.065719,556.305506 C442.030761,556.305506 556.305506,442.030761 556.305506,301.065719 C556.305506,249.755708 541.165305,201.98188 515.108662,161.967993 L515.108665,161.967988 Z M300,600 C134.314575,600 0,465.685425 0,300 C0,134.314575 134.314575,0 300,0 C465.685425,0 600,134.314575 600,300 C600,465.685425 465.685425,600 300,600 Z" id="Combined-Shape"></path>
                <path d="M136.202629,349.789076 L136.202629,430.550622 L131.659792,430.550622 L131.659792,349.789076 L136.202629,349.789076 Z M159.421573,380.983223 L159.421573,359.88427 L163.96441,359.88427 L163.96441,380.983223 L174.059603,380.983223 L174.059603,385.52606 L163.96441,385.52606 L163.96441,430.550622 L159.421573,430.550622 L159.421573,385.52606 L149.32638,385.52606 L149.32638,380.983223 L159.421573,380.983223 Z M239.678359,430.550622 L235.135522,430.550622 L235.135522,420.455429 C234.260601,421.633207 233.301567,422.760492 232.258392,423.837318 C226.840611,429.255099 220.295626,431.963949 212.623241,431.963949 C204.984507,431.963949 198.456347,429.255099 193.038566,423.837318 C187.620786,418.419537 184.911936,411.891378 184.911936,404.252643 C184.911936,396.580258 187.620786,390.035274 193.038566,384.617493 C198.456347,379.199712 204.984507,376.490862 212.623241,376.490862 C220.295626,376.490862 226.840611,379.199712 232.258392,384.617493 C233.301567,385.694319 234.260601,386.821604 235.135522,387.999382 L235.135522,380.983223 L239.678359,380.983223 L239.678359,430.550622 Z M235.135522,408.745004 L235.135522,399.760283 C234.294252,395.318375 232.191107,391.41494 228.826026,388.049858 C224.350468,383.5743 218.949594,381.336555 212.623241,381.336555 C206.296888,381.336555 200.896014,383.5743 196.420456,388.049858 C191.944898,392.525416 189.707153,397.926291 189.707153,404.252643 C189.707153,410.578996 191.944898,415.971458 196.420456,420.430191 C200.896014,424.888923 206.296888,427.118256 212.623241,427.118256 C218.949594,427.118256 224.350468,424.880511 228.826026,420.404953 C232.191107,417.039871 234.294252,413.153261 235.135522,408.745004 Z M259.363985,349.789076 L259.363985,430.550622 L254.821149,430.550622 L254.821149,349.789076 L259.363985,349.789076 Z M280.059131,380.983223 L280.059131,430.550622 L275.516295,430.550622 L275.516295,380.983223 L280.059131,380.983223 Z M280.992937,364.729962 C281.884683,365.604883 282.33055,366.664868 282.33055,367.909948 C282.33055,369.188679 281.884683,370.265489 280.992937,371.14041 C280.10119,372.015331 279.032793,372.452785 277.787713,372.452785 C276.542633,372.452785 275.474236,372.015331 274.582489,371.14041 C273.690743,370.265489 273.244876,369.188679 273.244876,367.909948 C273.244876,366.664868 273.690743,365.604883 274.582489,364.729962 C275.474236,363.855041 276.542633,363.417587 277.787713,363.417587 C279.032793,363.417587 280.10119,363.855041 280.992937,364.729962 Z M349.715964,430.550622 L345.173127,430.550622 L345.173127,420.455429 C344.298206,421.633207 343.339172,422.760492 342.295997,423.837318 C336.878217,429.255099 330.333232,431.963949 322.660847,431.963949 C315.022112,431.963949 308.493953,429.255099 303.076172,423.837318 C297.658391,418.419537 294.949541,411.891378 294.949541,404.252643 C294.949541,396.580258 297.658391,390.035274 303.076172,384.617493 C308.493953,379.199712 315.022112,376.490862 322.660847,376.490862 C330.333232,376.490862 336.878217,379.199712 342.295997,384.617493 C343.339172,385.694319 344.298206,386.821604 345.173127,387.999382 L345.173127,380.983223 L349.715964,380.983223 L349.715964,430.550622 Z M345.173127,408.745004 L345.173127,399.760283 C344.331857,395.318375 342.228713,391.41494 338.863632,388.049858 C334.388074,383.5743 328.987199,381.336555 322.660847,381.336555 C316.334494,381.336555 310.93362,383.5743 306.458062,388.049858 C301.982504,392.525416 299.744758,397.926291 299.744758,404.252643 C299.744758,410.578996 301.982504,415.971458 306.458062,420.430191 C310.93362,424.888923 316.334494,427.118256 322.660847,427.118256 C328.987199,427.118256 334.388074,424.880511 338.863632,420.404953 C342.228713,417.039871 344.331857,413.153261 345.173127,408.745004 Z M369.401591,392.03746 L369.401591,430.550622 L364.858754,430.550622 L364.858754,380.983223 L369.401591,380.983223 L369.401591,384.163209 C373.540641,380.05781 378.352635,378.005141 383.837717,378.005141 C389.692958,378.005141 394.454477,379.839083 398.122415,383.507022 C401.790354,387.17496 403.674771,391.801877 403.775724,397.387912 L403.775724,430.550622 L399.232887,430.550622 L399.232887,397.79172 C399.232887,393.585368 397.71021,389.993198 394.664812,387.015101 C391.619413,384.037004 388.010418,382.547978 383.837717,382.547978 C379.665016,382.547978 376.064434,384.011767 373.03586,386.939387 C371.386971,388.588277 370.17556,390.287618 369.401591,392.03746 Z M443.601261,376.490862 C451.273646,376.490862 457.810218,379.199712 463.211173,384.617493 C468.612129,390.035274 471.312566,396.580258 471.312566,404.252643 C471.312566,411.891378 468.612129,418.419537 463.211173,423.837318 C457.810218,429.255099 451.273646,431.963949 443.601261,431.963949 C435.962526,431.963949 429.434367,429.255099 424.016586,423.837318 C418.598805,418.419537 415.889955,411.891378 415.889955,404.252643 C415.889955,396.580258 418.598805,390.035274 424.016586,384.617493 C429.434367,379.199712 435.962526,376.490862 443.601261,376.490862 Z M427.398476,388.049858 C422.922918,392.525416 420.685172,397.926291 420.685172,404.252643 C420.685172,410.578996 422.922918,415.971458 427.398476,420.430191 C431.874034,424.888923 437.274908,427.118256 443.601261,427.118256 C449.927613,427.118256 455.328488,424.888923 459.804046,420.430191 C464.279604,415.971458 466.517349,410.578996 466.517349,404.252643 C466.517349,397.926291 464.279604,392.525416 459.804046,388.049858 C455.328488,383.5743 449.927613,381.336555 443.601261,381.336555 C437.274908,381.336555 431.874034,383.5743 427.398476,388.049858 Z" id="Italiano"></path>
                <path d="M297.868561,317.31794 L277.510102,328.021015 L281.398222,305.351538 L264.927883,289.296925 L287.689332,285.989493 L297.868561,265.364121 L308.047791,285.989493 L330.80924,289.296925 L314.338901,305.351538 L318.22702,328.021015 L297.868561,317.31794 Z M375.133215,313.854352 L359.472862,322.087487 L362.463723,304.649427 L349.794231,292.299725 L367.303038,289.755546 L375.133215,273.889876 L382.963391,289.755546 L400.472198,292.299725 L387.802707,304.649427 L390.793568,322.087487 L375.133215,313.854352 Z M220.603908,313.854352 L204.943555,322.087487 L207.934416,304.649427 L195.264924,292.299725 L212.773731,289.755546 L220.603908,273.889876 L228.434084,289.755546 L245.942891,292.299725 L233.273399,304.649427 L236.264261,322.087487 L220.603908,313.854352 Z" id="Combined-Shape"></path>
                <path d="M67.6930142,169.605437 L104.250971,221.966307 L134.362248,154.213631 L146.524879,151.405667 L152.14859,258.559396 L138.827613,261.634786 L134.780892,184.212428 L105.659444,249.499759 L70.4283497,199.069383 L74.4750711,276.491741 L61.1540948,279.56713 L55.5303837,172.413401 L67.6930142,169.605437 Z M230.363662,208.91536 L229.842924,198.732636 C228.839267,194.581055 226.573377,191.127641 223.045184,188.37229 C218.282631,184.772199 212.748147,183.700164 206.441566,185.156153 C200.092083,186.622047 194.804723,190.192501 190.579327,195.867624 C186.35393,201.542747 184.416483,207.683718 184.766927,214.290722 C185.107466,220.854825 187.64,225.952523 192.364604,229.58397 C197.089207,233.215416 202.626168,234.298176 208.97565,232.832283 C215.282231,231.376294 220.558866,227.808315 224.805713,222.12824 C227.970219,217.827759 229.82285,213.423509 230.363662,208.91536 Z M228.667568,176.025706 L228.370098,171.21404 L241.755427,168.123793 L245.41028,237.096021 L232.024952,240.186267 L231.588513,231.543079 C225.487199,239.95591 218.189363,245.142811 209.694785,247.103939 C199.569934,249.441445 190.744296,247.71711 183.217604,241.930884 C175.690912,236.144659 171.659814,227.981244 171.124188,217.440397 C170.54566,206.909454 173.636172,197.101887 180.395816,188.0174 C187.15546,178.932914 195.597581,173.222003 205.722431,170.884497 C214.217009,168.92337 221.865312,170.637089 228.667568,176.025706 Z M261.125542,163.65185 L274.446518,160.57646 L274.843145,166.992015 C277.037102,159.662024 281.802122,155.150245 289.138349,153.456544 C296.431673,151.772747 300.737015,154.664941 302.054504,162.133212 C303.740149,153.971613 309.323549,148.796423 318.804871,146.607488 C328.157487,144.448266 333.137896,149.285846 333.746248,161.120372 L336.647329,215.964506 L323.262,219.054753 L320.74269,170.561822 C320.352627,163.78321 317.519171,161.003083 312.242236,162.22136 C310.054239,162.726499 308.216161,163.964235 306.727947,165.934605 C305.239734,167.904975 304.722132,173.49221 305.175127,182.696477 L307.302569,222.739277 L293.981593,225.814667 L291.526635,177.306879 C291.136573,170.528267 288.281666,167.753093 282.961829,168.981274 C280.773832,169.486413 278.935754,170.724149 277.447541,172.69452 C276.167215,174.390952 275.585096,178.230754 275.701166,184.214039 L278.086515,229.484335 L264.765539,232.559725 L261.125542,163.65185 Z M367.161317,166.691274 L367.687063,177.482885 C368.746809,181.48595 371.009389,184.827159 374.47487,187.506611 C379.237423,191.106701 384.793358,192.173784 391.142841,190.707891 C397.492323,189.241997 402.790409,185.669066 407.037256,179.988991 C411.284104,174.308916 413.232276,168.165469 412.881832,161.558464 C412.541293,154.994362 410.006283,149.885938 405.276727,146.233041 C400.547171,142.580143 395.007735,141.486658 388.658252,142.952551 C382.308769,144.418445 376.994185,148.017779 372.714341,153.75066 C369.61583,157.945529 367.76484,162.259024 367.161317,166.691274 Z M368.916838,199.838337 L369.33842,208.417173 L356.017444,211.492562 L350.393733,104.338833 L363.714709,101.263444 L365.981037,144.256612 C372.039448,135.853686 379.337285,130.666785 387.874765,128.695753 C397.999615,126.358247 406.82773,128.093306 414.359374,133.900983 C421.891019,139.70866 425.946044,147.877847 426.524571,158.40879 C427.060197,168.949637 423.950711,178.772882 417.196019,187.87882 C410.441327,196.984757 402.001683,202.706393 391.876832,205.043899 C383.339352,207.014931 375.686098,205.279762 368.916838,199.838337 Z M474.943754,108.594292 C485.068605,106.256787 493.89672,107.991846 501.428364,113.799523 C508.960008,119.6072 513.015033,127.776387 513.593561,138.30733 C514.129187,148.848177 511.019701,158.671422 504.265009,167.77736 C497.510317,176.883297 489.070673,182.604933 478.945822,184.942439 C468.863873,187.27004 460.046484,185.532504 452.493389,179.72978 C444.940293,173.927055 440.895994,165.755392 440.360368,155.214545 C439.78184,144.683602 442.880601,134.862833 449.656744,125.751943 C456.432886,116.641053 464.861806,110.921894 474.943754,108.594292 Z M459.847683,133.634343 C455.61074,139.35732 453.662568,145.500768 454.003107,152.06487 C454.353551,158.671874 456.888561,163.780298 461.608212,167.390293 C466.327864,171.000289 471.862348,172.072324 478.21183,170.60643 C484.561313,169.140537 489.859398,165.567606 494.106246,159.887531 C498.353093,154.207456 500.301266,148.064009 499.950822,141.457004 C499.610283,134.892902 497.075273,129.784478 492.345717,126.131581 C487.616161,122.478683 482.076724,121.385198 475.727242,122.851091 C469.377759,124.316985 464.084626,127.911366 459.847683,133.634343 Z" id="Mambo"></path>
            </g>
        </g>
    </g>
</svg>