<?xml version="1.0" encoding="UTF-8"?>
<svg width="600px" height="600px" viewBox="0 0 600 600" version="1.1" xmlns="http://www.w3.org/2000/svg" xmlns:xlink="http://www.w3.org/1999/xlink">
    <!-- Generator: Sketch 42 (36781) - http://www.bohemiancoding.com/sketch -->
    <title>mamboitalianologo-white</title>
    <desc>Created with Sketch.</desc>
    <defs></defs>
    <g id="Page-1" stroke="none" stroke-width="1" fill="none" fill-rule="evenodd">
        <g id="Artboard" transform="translate(-23.000000, -23.000000)" fill="#FFFFFF">
            <g id="Group" transform="translate(23.000000, 23.000000)">
                <path d="M515.108665,161.967988 C518.984189,153.994437 520.697722,145.595392 520.249303,136.770731 C519.565653,124.326239 514.7738,114.672652 505.873602,107.809678 C496.973404,100.946705 486.541157,98.8963723 474.576547,101.65862 C471.089718,102.463618 467.770206,103.611907 464.618005,105.103491 C420.325906,68.0969469 363.29665,45.8259325 301.065719,45.8259325 C206.273975,45.8259325 123.551239,97.4994995 79.5295412,174.214604 L67.5301938,158.365527 L49.3507967,162.562572 L52.076484,244.673725 C47.9852839,262.815044 45.8259325,281.68821 45.8259325,301.065719 C45.8259325,442.030761 160.100678,556.305506 301.065719,556.305506 C442.030761,556.305506 556.305506,442.030761 556.305506,301.065719 C556.305506,249.755708 541.165305,201.98188 515.108662,161.967993 Z M300,600 C134.314575,600 0,465.685425 0,300 C0,134.314575 134.314575,0 300,0 C465.685425,0 600,134.314575 600,300 C600,465.685425 465.685425,600 300,600 Z" id="Combined-Shape"></path>
                <path d="M136.202629,349.789076 L136.202629,430.550622 L131.659792,430.550622 L131.659792,349.789076 L136.202629,349.789076 Z M159.421573,380.983223 L159.421573,359.88427 L163.96441,359.88427 L163.96441,380.983223 L174.059603,380.983223 L174.059603,385.52606 L163.96441,385.52606 L163.96441,430.550622 L159.421573,430.550622 L159.421573,385.52606 L149.32638,385.52606 L149.32638,380.983223 L159.421573,380.983223 Z M239.678359,430.550622 L235.135522,430.550622 L235.135522,420.455429 C234.260601,421.633207 233.301567,422.760492 232.258392,423.837318 C226.840611,429.255099 220.295626,431.963949 212.623241,431.963949 C204.984507,431.963949 198.456347,429.255099 193.038566,423.837318 C187.620786,418.419537 184.911936,411.891378 184.911936,404.252643 C184.911936,396.580258 187.620786,390.035274 193.038566,384.617493 C198.456347,379.199712 204.984507,376.490862 212.623241,376.490862 C220.295626,376.490862 226.840611,379.199712 232.258392,384.617493 C233.301567,385.694319 234.260601,386.821604 235.135522,387.999382 L235.135522,380.983223 L239.678359,380.983223 L239.678359,430.550622 Z M235.135522,408.745004 L235.135522,399.760283 C234.294252,395.318375 232.191107,391.41494 228.826026,388.049858 C224.350468,383.5743 218.949594,381.336555 212.623241,381.336555 C206.296888,381.336555 200.896014,383.5743 196.420456,388.049858 C191.944898,392.525416 189.707153,397.926291 189.707153,404.252643 C189.707153,410.578996 191.944898,415.971458 196.420456,420.430191 C200.896014,424.888923 206.296888,427.118256 212.623241,427.118256 C218.949594,427.118256 224.350468,424.880511 228.826026,420.404953 C232.191107,417.039871 234.294252,413.153261 235.135522,408.745004 Z M259.363985,349.789076 L259.363985,430.550622 L254.821149,430.550622 L254.821149,349.789076 L259.363985,349.789076 Z M280.059131,380.983223 L280.059131,430.550622 L275.516295,430.550622 L275.516295,380.983223 L280.059131,380.983223 Z M280.992937,364.729962 C281.884683,365.604883 282.33055,366.664868 282.33055,367.909948 C282.33055,369.188679 281.884683,370.265489 280.992937,371.14041 C280.10119,372.015331 279.032793,372.452785 277.787713,372.452785 C276.542633,372.452785 275.474236,372.015331 274.582489,371.14041 C273.690743,370.265489 273.244876,369.188679 273.244876,367.909948 C273.244876,366.664868 273.690743,365.604883 274.582489,364.729962 C275.474236,363.855041 276.542633,363.417587 277.787713,363.417587 C279.032793,363.417587 280.10119,363.855041 280.992937,364.729962 Z M349.715964,430.550622 L345.173127,430.550622 L345.173127,420.455429 C344.298206,421.633207 343.339172,422.760492 342.295997,423.837318 C336.878217,429.255099 330.333232,431.963949 322.660847,431.963949 C315.022112,431.963949 308.493953,429.255099 303.076172,423.837318 C297.658391,418.419537 294.949541,411.891378 294.949541,404.252643 C294.949541,396.580258 297.658391,390.035274 303.076172,384.617493 C308.493953,379.199712 315.022112,376.490862 322.660847,376.490862 C330.333232,376.490862 336.878217,379.199712 342.295997,384.617493 C343.339172,385.694319 344.298206,386.821604 345.173127,387.999382 L345.173127,380.983223 L349.715964,380.983223 L349.715964,430.550622 Z M345.173127,408.745004 L345.173127,399.760283 C344.331857,395.318375 342.228713,391.41494 338.863632,388.049858 C334.388074,383.5743 328.987199,381.336555 322.660847,381.336555 C316.334494,381.336555 310.93362,383.5743 306.458062,388.049858 C301.982504,392.525416 299.744758,397.926291 299.744758,404.252643 C299.744758,410.578996 301.982504,415.971458 306.458062,420.430191 C310.93362,424.888923 316.334494,427.118256 322.660847,427.118256 C328.987199,427.118256 334.388074,424.880511 338.863632,420.404953 C342.228713,417.039871 344.331857,413.153261 345.173127,408.745004 Z M369.401591,392.03746 L369.401591,430.550622 L364.858754,430.550622 L364.858754,380.983223 L369.401591,380.983223 L369.401591,384.163209 C373.540641,380.05781 378.352635,378.005141 383.837717,378.005141 C389.692958,378.005141 394.454477,379.839083 398.122415,383.507022 C401.790354,387.17496 403.674771,391.801877 403.775724,397.387912 L403.775724,430.550622 L399.232887,430.550622 L399.232887,397.79172 C399.232887,393.585368 397.71021,389.993198 394.664812,387.015101 C391.619413,384.037004 388.010418,382.547978 383.837717,382.547978 C379.665016,382.547978 376.064434,384.011767 373.03586,386.939387 C371.386971,388.588277 370.17556,390.287618 369.401591,392.03746 Z M443.601261,376.490862 C451.273646,376.490862 457.810218,379.199712 463.211173,384.617493 C468.612129,390.035274 471.312566,396.580258 471.312566,404.252643 C471.312566,411.891378 468.612129,418.419537 463.211173,423.837318 C457.810218,429.255099 451.273646,431.963949 443.601261,431.963949 C435.962526,431.963949 429.434367,429.255099 424.016586,423.837318 C418.598805,418.419537 415.889955,411.891378 415.889955,404.252643 C415.889955,396.580258 418.598805,390.035274 424.016586,384.617493 C429.434367,379.199712 435.962526,376.490862 443.601261,376.490862 Z M427.398476,388.049858 C422.922918,392.525416 420.685172,397.926291 420.685172,404.252643 C420.685172,410.578996 422.922918,415.971458 427.398476,420.430191 C431.874034,424.888923 437.274908,427.118256 443.601261,427.118256 C449.927613,427.118256 455.328488,424.888923 459.804046,420.430191 C464.279604,415.971458 466.517349,410.578996 466.517349,404.252643 C466.517349,397.926291 464.279604,392.525416 459.804046,388.049858 C455.328488,383.5743 449.927613,381.336555 443.601261,381.336555 C437.274908,381.336555 431.874034,383.5743 427.398476,388.049858 Z" id="Italiano" transform="translate(301.486179, 390.876513) rotate(-360.000000) translate(-301.486179, -390.876513) "></path>
                <path d="M297.868561,317.31794 L277.510102,328.021015 L281.398222,305.351538 L264.927883,289.296925 L287.689332,285.989493 L297.868561,265.364121 L308.047791,285.989493 L330.80924,289.296925 L314.338901,305.351538 L318.22702,328.021015 L297.868561,317.31794 Z M375.133215,313.854352 L359.472862,322.087487 L362.463723,304.649427 L349.794231,292.299725 L367.303038,289.755546 L375.133215,273.889876 L382.963391,289.755546 L400.472198,292.299725 L387.802707,304.649427 L390.793568,322.087487 L375.133215,313.854352 Z M220.603908,313.854352 L204.943555,322.087487 L207.934416,304.649427 L195.264924,292.299725 L212.773731,289.755546 L220.603908,273.889876 L228.434084,289.755546 L245.942891,292.299725 L233.273399,304.649427 L236.264261,322.087487 L220.603908,313.854352 Z" id="Combined-Shape"></path>
                <path d="M74.5118227,121.997683 L98.3541682,181.240297 L142.934731,121.997683 L155.417289,121.997683 L136.79252,227.670128 L123.121148,227.670128 L136.594385,151.321786 L93.5328629,208.384907 L70.549106,151.321786 L57.0758692,227.670128 L43.4044965,227.670128 L62.029265,121.997683 L74.5118227,121.997683 Z M224.170424,196.893028 L225.953646,186.854146 C225.909616,182.583197 224.478649,178.708579 221.660703,175.230177 C217.830058,170.651015 212.678578,168.361468 206.206108,168.361468 C199.689608,168.361468 193.734585,170.651015 188.34086,175.230177 C182.947136,179.809339 179.677927,185.357087 178.533136,191.873587 C177.388346,198.346057 178.709238,203.882797 182.495853,208.483975 C186.282468,213.085152 191.433948,215.385706 197.950448,215.385706 C204.422918,215.385706 210.366934,213.09616 215.782673,208.516998 C219.833471,205.038595 222.62936,201.163978 224.170424,196.893028 Z M229.916363,164.464797 L230.708906,159.709537 L244.446324,159.709537 L232.492129,227.736174 L218.754711,227.736174 L220.273752,219.216333 C212.43634,226.041046 204.158748,229.453351 195.440728,229.453351 C185.049552,229.453351 176.838004,225.787875 170.805839,218.456812 C164.773673,211.125749 162.68226,202.264763 164.531537,191.873587 C166.336784,181.482412 171.554309,172.621425 180.184268,165.290363 C188.814228,157.9593 198.324653,154.293824 208.715829,154.293824 C217.433849,154.293824 224.500623,157.684114 229.916363,164.464797 Z M264.325953,159.709537 L277.997326,159.709537 L276.940601,166.049883 C280.727216,159.401292 286.385039,156.077046 293.914238,156.077046 C301.399407,156.077046 304.943801,159.863604 304.547528,167.436834 C308.02593,159.863604 314.630392,156.077046 324.361111,156.077046 C333.95974,156.077046 337.724283,161.910988 335.654854,173.579045 L326.144334,227.670128 L312.406916,227.670128 L320.860712,179.853347 C322.005502,173.160725 319.870059,169.814464 314.45432,169.814464 C312.208769,169.814464 310.139371,170.607 308.246063,172.192094 C306.352756,173.777189 304.591566,179.104788 302.962441,188.175052 L296.027687,227.670128 L282.356314,227.670128 L290.876155,179.853347 C292.020946,173.160725 289.863488,169.814464 284.403718,169.814464 C282.158167,169.814464 280.088769,170.607 278.195462,172.192094 C276.566337,173.557037 275.13537,177.167476 273.902519,183.02352 L266.04313,227.670128 L252.371758,227.670128 L264.325953,159.709537 Z M366.960316,186.52392 L365.045003,197.15721 C365.177094,201.296068 366.630076,205.060611 369.403991,208.450952 C373.234637,213.030114 378.408132,215.319661 384.924632,215.319661 C391.441132,215.319661 397.407162,213.030114 402.822902,208.450952 C408.238642,203.87179 411.518858,198.324042 412.663649,191.807542 C413.808439,185.335072 412.487547,179.787324 408.700932,175.164132 C404.914317,170.540939 399.762837,168.229378 393.246337,168.229378 C386.729837,168.229378 380.741791,170.540939 375.282021,175.164132 C371.319285,178.554473 368.545411,182.341031 366.960316,186.52392 Z M361.214377,219.216333 L359.695335,227.670128 L346.023963,227.670128 L364.648731,121.997683 L378.320104,121.997683 L370.856987,164.398751 C378.650369,157.574039 386.927961,154.161733 395.690012,154.161733 C406.081188,154.161733 414.292735,157.838217 420.324901,165.191295 C426.357067,172.544373 428.470494,181.416366 426.665248,191.807542 C424.815971,202.198718 419.576431,211.070712 410.946472,218.423789 C402.316512,225.776867 392.806087,229.453351 382.414911,229.453351 C373.65286,229.453351 366.586086,226.041046 361.214377,219.216333 Z M485.049274,154.161733 C495.44045,154.161733 503.651997,157.838217 509.684163,165.191295 C515.716329,172.544373 517.829756,181.416366 516.02451,191.807542 C514.175233,202.198718 508.935693,211.070712 500.305733,218.423789 C491.675774,225.776867 482.165349,229.453351 471.774173,229.453351 C461.427028,229.453351 453.226488,225.776867 447.172307,218.423789 C441.118126,211.070712 439.015706,202.198718 440.864983,191.807542 C442.670229,181.416366 447.898762,172.544373 456.550736,165.191295 C465.202711,157.838217 474.702129,154.161733 485.049274,154.161733 Z M464.707328,175.164132 C459.291588,179.787324 456.011372,185.335072 454.866582,191.807542 C453.721791,198.324042 455.042684,203.87179 458.829298,208.450952 C462.615913,213.030114 467.767394,215.319661 474.283894,215.319661 C480.800394,215.319661 486.766424,213.030114 492.182164,208.450952 C497.597904,203.87179 500.87812,198.324042 502.022911,191.807542 C503.167701,185.335072 501.846809,179.787324 498.060194,175.164132 C494.273579,170.540939 489.122099,168.229378 482.605599,168.229378 C476.089099,168.229378 470.123068,170.540939 464.707328,175.164132 Z" id="Mambo" transform="translate(280.026367, 175.725517) rotate(-13.000000) translate(-280.026367, -175.725517) "></path>
            </g>
        </g>
    </g>
</svg>